# xmcd
#
# Track frame offsets:
#	150
#	15305
#	30258
#	45810
#	56230
#	71668
#	85000
#	96980
#	110695
#	125553
#	140803
#
# Disc length: 2033 seconds
#
# Revision: 1
# Processed by: cddbd v1.5PL3 Copyright (c) Steve Scherf et al.
# Submitted via: CDex 1.50Beta5
#
DISCID=8e07ef0b
DTITLE=サンハウス - 有頂天
DYEAR=1992
DGENRE=Rock
TTITLE0=キングスネークブルース
TTITLE1=借家のブルース
TTITLE2=風よ吹け
TTITLE3=もうがまんできない
TTITLE4=レモンティー
TTITLE5=ロックンロールの真最中
TTITLE6=ミルクのみ人形
TTITLE7=地獄へドライブ
TTITLE8=スーツケースブルース
TTITLE9=なまずの唄
TTITLE10=夢みるボロ人形
EXTD=
EXTT0=
EXTT1=
EXTT2=
EXTT3=
EXTT4=
EXTT5=
EXTT6=
EXTT7=
EXTT8=
EXTT9=
EXTT10=
PLAYORDER=
